<?xml version="1.0" standalone="no"?>
<!DOCTYPE svg PUBLIC "-//W3C//DTD SVG 20010904//EN"
 "http://www.w3.org/TR/2001/REC-SVG-20010904/DTD/svg10.dtd">
<svg version="1.0" xmlns="http://www.w3.org/2000/svg"
 width="920.000000pt" height="800.000000pt" viewBox="0 0 920.000000 800.000000"
 preserveAspectRatio="xMidYMid meet">

<g transform="translate(0.000000,800.000000) scale(0.100000,-0.100000)"
fill="#000000" stroke="none">
<path d="M5426 4762 c-2 -4 15 -50 40 -102 l44 -93 -70 -93 c-124 -162 -247
-262 -457 -369 -90 -46 -101 -54 -68 -49 273 41 524 193 620 377 22 41 32 52
38 42 5 -10 -17 -51 -72 -133 -102 -150 -188 -251 -284 -332 -42 -35 -75 -65
-73 -67 8 -8 139 48 193 83 129 82 216 175 276 298 31 62 47 75 47 36 0 -23
-93 -183 -158 -270 -70 -95 -188 -217 -272 -283 -88 -69 -93 -75 -35 -42 165
93 399 303 503 454 62 89 73 79 43 -41 -49 -191 -160 -357 -351 -522 l-55 -47
45 27 c131 79 275 212 349 322 42 62 104 182 114 222 6 22 6 22 37 4 29 -18
30 -21 24 -64 -29 -202 -118 -417 -241 -585 l-37 -50 43 40 c112 105 263 354
312 515 11 39 24 70 28 70 4 0 16 -6 27 -14 18 -14 19 -16 1 -103 -22 -109
-72 -283 -98 -343 -19 -45 -19 -45 1 -20 27 34 152 281 181 358 28 73 52 84
43 20 -29 -212 -98 -458 -169 -599 -20 -38 -33 -69 -31 -69 2 0 25 33 50 73
99 159 196 383 233 537 9 38 21 70 25 70 11 0 1 -187 -18 -345 -15 -120 -37
-223 -56 -258 -5 -10 -8 -21 -5 -23 7 -7 55 100 84 185 14 42 41 141 59 221
l34 145 -4 -140 c-6 -173 -29 -308 -81 -480 -3 -11 11 14 30 55 67 139 145
452 145 581 0 97 35 4 66 -171 15 -90 15 -234 -1 -325 -3 -16 4 -5 15 25 35
92 53 239 47 383 -5 115 -4 127 12 127 12 0 24 -22 44 -82 43 -134 55 -227 54
-402 l-2 -159 17 74 c40 170 44 361 12 552 -6 35 -5 37 20 37 23 0 26 -4 27
-32 0 -18 2 -42 4 -53 2 -11 9 -49 15 -85 19 -109 50 -221 87 -310 46 -112 56
-120 28 -23 -31 105 -45 230 -45 396 0 108 3 137 13 137 9 0 24 -38 42 -107
49 -192 115 -350 197 -474 29 -43 53 -77 55 -76 1 2 -15 37 -37 78 -64 123
-131 393 -142 573 -4 74 15 66 41 -16 33 -101 81 -204 135 -288 25 -38 48 -70
50 -70 3 0 -6 24 -20 54 -14 30 -35 96 -48 148 -23 90 -50 267 -42 276 2 2 18
-23 35 -55 59 -110 184 -237 326 -328 80 -52 196 -114 145 -78 -164 118 -286
251 -357 390 -26 51 -44 95 -41 98 3 3 24 -19 47 -49 52 -68 201 -212 261
-252 84 -57 87 -53 15 19 -73 73 -173 214 -227 321 -25 50 -28 61 -16 73 12
12 20 6 51 -39 83 -121 248 -262 387 -333 82 -41 130 -55 72 -21 -112 66 -244
191 -320 303 -49 72 -100 174 -95 189 2 6 45 -29 94 -78 122 -120 258 -214
357 -248 23 -8 24 -8 8 3 -72 46 -151 115 -209 182 -70 81 -167 219 -167 237
0 6 22 -10 48 -34 116 -109 277 -204 416 -247 92 -29 93 -27 2 18 -95 48 -207
132 -280 212 -58 62 -116 141 -116 157 0 5 16 44 36 87 25 55 33 80 25 88 -6
6 -12 9 -14 6 -2 -2 -28 -40 -58 -84 -71 -104 -214 -253 -314 -328 -91 -68
-247 -148 -344 -177 -364 -108 -758 -40 -1052 182 -99 75 -262 246 -319 336
-42 66 -62 83 -74 64z"/>
<path d="M1804 4675 c-3 -8 15 -56 40 -107 l46 -93 -77 -73 c-219 -206 -378
-293 -573 -316 -25 -3 -49 -6 -55 -7 -5 -1 8 -5 30 -10 65 -13 195 -10 265 7
168 39 365 177 450 314 5 8 11 12 14 9 8 -7 -119 -192 -193 -283 -49 -60 -100
-110 -216 -210 l-30 -26 58 20 c179 60 340 198 424 364 16 32 28 45 35 38 13
-13 -37 -111 -115 -225 -74 -108 -226 -270 -318 -339 -38 -28 -69 -53 -69 -55
0 -2 3 -2 8 0 219 129 403 289 526 457 27 36 53 65 60 65 19 0 8 -79 -25 -169
-52 -145 -177 -312 -334 -445 -42 -36 -35 -32 45 21 170 113 332 297 391 446
12 31 24 59 25 60 7 9 64 -34 64 -48 -1 -33 -40 -189 -65 -260 -36 -100 -97
-217 -162 -309 l-53 -76 70 75 c116 122 226 306 279 465 11 33 24 60 30 59 6
-1 16 -2 22 -2 23 -4 -30 -256 -85 -408 -14 -37 -23 -70 -21 -72 11 -12 205
381 205 417 0 6 9 11 21 11 18 0 20 -4 14 -47 -26 -189 -92 -415 -164 -563
-22 -44 -36 -78 -31 -75 14 9 119 191 161 279 46 99 101 248 119 324 22 93 33
62 26 -70 -9 -170 -33 -341 -60 -420 -30 -90 -16 -77 27 26 39 94 68 189 103
346 l24 105 -4 -150 c-4 -152 -21 -263 -57 -389 -12 -38 -23 -76 -25 -85 -11
-39 51 102 81 184 39 106 82 291 91 392 6 69 17 103 28 92 3 -3 16 -41 27 -85
18 -64 22 -109 23 -234 1 -85 -2 -171 -6 -190 l-7 -35 16 35 c33 75 53 210 53
363 0 139 1 147 20 147 15 0 24 -14 39 -65 49 -157 67 -341 49 -505 l-7 -65
19 70 c31 114 43 245 36 384 -3 69 -9 141 -12 158 -5 25 -2 34 10 39 9 4 19 4
23 1 3 -3 13 -55 23 -114 20 -125 50 -240 87 -333 25 -63 52 -108 39 -65 -41
141 -62 374 -48 528 1 9 8 17 16 17 9 0 20 -26 31 -72 43 -178 130 -383 216
-509 22 -32 41 -59 43 -59 2 0 -11 28 -30 63 -19 34 -50 110 -69 169 -54 165
-97 445 -70 454 6 2 21 -26 34 -63 30 -88 100 -228 147 -295 20 -29 33 -44 29
-33 -45 119 -59 161 -75 232 -21 89 -37 223 -27 223 4 0 16 -17 26 -39 61
-119 213 -265 379 -363 109 -65 129 -70 52 -13 -167 124 -295 282 -345 425
l-16 45 33 -40 c52 -63 130 -146 183 -196 51 -47 162 -129 176 -129 4 0 -22
28 -58 63 -65 62 -180 223 -229 319 -22 43 -24 53 -12 64 12 12 23 2 78 -66
103 -131 245 -243 396 -311 86 -39 91 -36 14 9 -83 49 -234 193 -297 284 -65
95 -106 175 -93 183 6 4 49 -30 97 -75 91 -86 198 -167 273 -205 80 -40 96
-38 33 4 -77 52 -191 174 -267 284 -72 104 -68 134 7 64 106 -100 239 -182
375 -233 87 -33 100 -30 24 6 -35 16 -89 47 -120 67 -67 44 -218 187 -256 242
l-27 38 36 74 c34 72 43 109 27 109 -5 0 -34 -37 -65 -83 -76 -112 -200 -242
-305 -323 -110 -83 -279 -166 -407 -201 -93 -25 -114 -27 -300 -27 -186 0
-207 2 -300 27 -105 28 -294 115 -357 163 -20 16 -56 43 -79 59 -65 47 -222
217 -280 305 -56 82 -66 90 -75 65z"/>
</g>
</svg>
