<?xml version="1.0" standalone="no"?>
<!DOCTYPE svg PUBLIC "-//W3C//DTD SVG 20010904//EN"
 "http://www.w3.org/TR/2001/REC-SVG-20010904/DTD/svg10.dtd">
<svg version="1.0" xmlns="http://www.w3.org/2000/svg"
 width="348.000000pt" height="348.000000pt" viewBox="0 0 348.000000 348.000000"
 preserveAspectRatio="xMidYMid meet">

<g transform="translate(0.000000,348.000000) scale(0.100000,-0.100000)"
fill="#000000" stroke="none">
<path d="M2075 2806 c3 -10 8 -59 12 -107 5 -69 2 -104 -12 -154 -23 -86 -44
-88 -43 -2 1 62 -15 133 -35 152 -7 7 -7 4 -2 -10 4 -11 10 -57 13 -102 4 -71
2 -83 -11 -83 -12 0 -15 7 -10 33 7 48 -13 142 -47 214 -16 35 -31 63 -34 63
-3 0 6 -30 20 -66 20 -54 24 -81 22 -143 l-3 -76 -30 3 c-28 3 -45 16 -72 58
-10 16 -11 14 -6 -14 5 -27 3 -31 -11 -26 -9 3 -16 14 -16 23 0 40 -34 113
-72 153 -31 34 -35 37 -19 11 28 -41 51 -108 51 -144 0 -24 -4 -29 -25 -29
-19 0 -31 9 -43 32 -9 18 -36 52 -60 78 l-43 45 45 -68 c25 -38 46 -72 46 -78
0 -20 -23 -7 -72 41 -28 28 -53 48 -55 46 -3 -2 10 -24 27 -47 l31 -43 -72
-12 c-306 -52 -552 -309 -712 -744 -57 -155 -53 -153 32 15 101 203 180 322
289 436 95 100 181 166 263 203 93 42 95 42 123 -1 13 -21 28 -56 32 -78 l6
-40 -27 40 c-30 44 -50 61 -79 69 -16 4 -15 0 6 -22 36 -38 48 -65 48 -104
l-1 -33 -21 43 c-11 24 -37 54 -57 68 -47 32 -61 31 -29 -3 50 -54 68 -116 20
-70 -35 34 -49 35 -28 2 26 -40 18 -38 -24 6 -22 23 -43 39 -47 36 -4 -4 5
-20 20 -35 22 -23 58 -99 57 -121 -1 -3 -11 5 -23 19 -12 14 -33 34 -46 45
l-23 20 20 -40 c11 -22 23 -53 27 -70 6 -29 5 -29 -44 20 -58 56 -65 50 -21
-18 34 -55 23 -63 -16 -12 -39 51 -49 43 -18 -15 15 -28 24 -53 21 -56 -14
-14 -59 9 -77 39 -12 19 -20 25 -20 16 0 -9 11 -33 25 -53 30 -44 21 -46 -35
-5 -44 32 -44 27 -2 -30 l25 -33 -24 7 c-13 4 -36 14 -51 22 -39 19 -35 1 7
-36 27 -24 31 -31 18 -31 -10 0 -29 7 -42 16 -22 16 -23 16 -11 -5 6 -12 18
-25 26 -28 11 -4 12 -9 3 -19 -14 -17 -43 -18 -72 -2 -20 10 -21 10 -9 -5 8
-9 22 -19 33 -22 16 -5 13 -13 -30 -68 -90 -115 -187 -292 -245 -447 -21 -53
-18 -51 64 60 34 47 94 122 132 167 74 88 243 253 259 253 5 0 9 -10 9 -23 0
-46 50 -127 106 -168 204 -155 480 -96 580 123 30 67 41 175 18 171 -7 -1 -10
6 -7 17 3 11 9 20 14 20 4 0 3 14 -3 31 -6 16 -9 32 -7 34 8 7 308 -42 328
-54 35 -22 -181 -268 -315 -361 -83 -58 -182 -102 -293 -132 -62 -17 -100 -20
-201 -17 -307 7 -371 4 -433 -20 -36 -14 -80 -43 -117 -78 -71 -65 -78 -84
-16 -43 51 35 158 86 200 96 25 6 27 5 18 -12 -15 -30 -23 -74 -13 -74 5 0 12
11 15 25 9 34 106 103 106 75 0 -6 -4 -10 -9 -10 -13 0 -43 -68 -39 -88 3 -12
9 -6 22 20 10 20 29 44 42 53 26 17 33 5 10 -15 -16 -13 -31 -54 -40 -110 -6
-31 -3 -28 19 20 25 52 61 100 76 100 3 0 0 -19 -8 -42 -8 -23 -13 -55 -11
-72 4 -31 4 -31 16 11 7 24 24 55 38 70 20 23 23 24 15 6 -14 -27 -14 -103 -1
-123 7 -11 10 -3 10 28 0 50 17 87 56 122 23 22 26 22 19 5 -16 -38 -17 -91
-2 -125 l14 -35 0 52 c1 34 7 63 20 83 l19 30 1 -49 c0 -27 6 -57 12 -67 9
-16 11 -13 11 21 3 86 17 81 25 -8 4 -48 10 -85 14 -82 3 4 14 46 23 93 l17
87 -2 -97 c-1 -56 2 -93 7 -88 5 5 19 44 32 87 l23 78 1 -55 c2 -55 2 -55 15
-25 8 17 15 46 15 65 1 29 3 31 10 15 15 -34 11 -79 -10 -120 -24 -48 -25 -51
-3 -34 22 19 43 71 44 111 l1 33 11 -34 c9 -27 7 -43 -6 -80 -19 -54 -16 -62
9 -24 12 19 19 46 19 80 l0 52 23 -21 c29 -28 45 -90 37 -142 -6 -34 -5 -39 6
-28 10 9 14 39 14 92 0 43 3 76 7 74 17 -11 30 -81 24 -133 -7 -67 9 -51 19
19 4 30 1 61 -9 90 -8 24 -14 46 -12 48 2 1 18 -16 35 -40 38 -51 54 -105 46
-156 -5 -33 -4 -34 6 -12 28 64 -9 194 -75 261 l-31 32 32 -17 c35 -18 75 -65
92 -111 10 -28 11 -26 7 23 -2 32 -10 60 -21 72 -28 31 -4 24 38 -11 47 -38
75 -92 93 -178 l14 -66 -4 66 c-4 82 -40 153 -105 210 -51 45 -33 53 25 10 46
-33 66 -60 88 -122 10 -29 15 -36 16 -21 0 37 -28 94 -68 135 -44 45 -31 48
27 7 48 -35 93 -101 117 -172 20 -61 31 -55 15 8 -21 81 -59 140 -125 191 -45
36 -6 27 51 -12 58 -39 88 -82 114 -163 22 -70 26 -30 4 44 -18 61 -65 126
-111 155 -19 12 -33 23 -30 26 9 9 65 -28 90 -59 31 -40 34 -19 4 31 -21 35
-21 35 -1 18 11 -10 27 -34 35 -55 9 -20 21 -48 27 -62 10 -23 11 -22 5 10 -3
19 -17 58 -30 85 l-26 50 26 -24 c15 -14 35 -52 46 -85 11 -35 19 -51 19 -37
1 43 -22 101 -56 141 -40 46 -35 49 26 14 50 -28 68 -49 94 -108 l17 -41 -6
35 c-13 77 -78 154 -159 191 -39 18 -39 19 -11 19 34 0 111 -42 120 -66 4 -9
9 -14 12 -11 10 10 -25 65 -58 91 l-33 26 35 -6 c70 -13 129 -52 175 -115 50
-68 60 -67 17 2 -47 73 -112 120 -202 145 l-45 12 49 1 c63 1 123 -27 170 -80
45 -49 47 -37 4 15 -19 23 -57 51 -92 68 l-61 29 50 -6 c70 -9 128 -39 186
-97 28 -28 53 -48 56 -44 3 3 -23 34 -58 69 -62 61 -128 97 -181 97 -11 0 -17
4 -13 9 6 11 56 6 124 -11 31 -8 63 -29 109 -72 68 -64 69 -43 2 24 -61 61
-132 92 -220 98 -60 4 -70 7 -50 14 49 19 150 10 204 -16 28 -14 52 -23 55
-21 2 3 -15 24 -39 46 -35 34 -39 40 -19 34 13 -4 39 -15 57 -26 17 -10 32
-15 32 -11 0 13 -64 70 -90 81 -24 9 -24 10 8 10 37 1 97 -21 124 -46 22 -20
24 -3 3 37 -8 16 -25 32 -37 36 -19 6 -13 10 40 34 166 76 281 203 332 366 27
88 27 140 -1 61 -25 -75 -55 -120 -115 -179 -49 -46 -193 -142 -202 -133 -3 2
13 24 34 47 45 48 97 135 119 197 20 59 10 51 -26 -21 -36 -72 -111 -154 -170
-187 l-43 -24 32 39 c32 41 73 132 71 162 0 9 -7 1 -16 -18 -26 -62 -65 -111
-122 -151 -30 -21 -58 -39 -62 -39 -4 0 16 24 44 53 88 87 138 200 136 302 -1
38 -1 37 -14 -20 -22 -104 -72 -205 -119 -244 -12 -11 -11 -3 5 34 25 56 19
69 -9 23 -20 -32 -76 -89 -117 -119 -11 -7 3 12 31 43 61 67 89 123 104 207
11 63 7 100 -5 45 -19 -86 -49 -154 -91 -207 -50 -64 -70 -72 -29 -12 14 21
26 50 26 64 1 14 3 42 4 61 1 19 5 61 10 93 7 54 -9 202 -24 211 -3 2 -5 -36
-3 -85 5 -144 -30 -237 -126 -326 -58 -55 -74 -55 -27 -1 48 57 69 132 62 223
-9 117 -24 133 -23 24 0 -78 -4 -102 -23 -141 -12 -25 -31 -54 -41 -63 -15
-14 -14 -7 8 47 34 85 36 210 3 278 -11 25 -18 36 -15 25 4 -11 9 -54 11 -95
4 -60 1 -86 -16 -130 -21 -54 -65 -119 -75 -109 -3 2 2 29 10 58 11 36 14 68
9 99 l-7 47 -14 -53 c-8 -29 -21 -66 -29 -82 -28 -54 -32 -31 -7 43 20 61 23
86 20 162 -3 55 -11 104 -22 125 -9 19 -14 26 -10 15 13 -47 16 -185 5 -232
-14 -56 -59 -129 -72 -116 -5 5 -2 26 6 50 32 94 27 226 -12 293 -8 14 -12 17
-8 6z m-441 -341 c-1 -11 -6 -38 -9 -60 l-7 -40 -19 49 c-10 27 -28 59 -40 72
l-22 23 24 5 c57 12 64 11 70 -9 4 -11 5 -29 3 -40z m65 13 l0 -53 -14 50 c-8
28 -14 51 -15 53 0 1 7 2 15 2 12 0 15 -12 14 -52z m61 35 c-1 -10 -7 -31 -15
-48 l-13 -30 -1 48 c-1 35 3 47 14 47 8 0 15 -8 15 -17z m82 -34 c-4 -35 -35
-103 -52 -114 -5 -3 -3 13 5 36 8 23 15 52 15 64 0 33 11 56 24 52 6 -2 9 -19
8 -38z m86 16 c6 -5 -37 -83 -50 -91 -8 -5 -9 -2 -5 10 4 10 7 36 7 57 0 37 2
40 23 33 12 -3 23 -8 25 -9z m47 -55 c-9 -18 -19 -30 -21 -27 -3 3 2 19 11 37
9 18 19 30 21 27 3 -3 -2 -19 -11 -37z m49 -5 c-9 -14 -19 -24 -21 -21 -7 7
16 46 28 46 5 0 2 -11 -7 -25z m40 -29 c-9 -15 -19 -25 -21 -22 -3 2 3 16 13
30 9 15 19 25 21 22 3 -2 -3 -16 -13 -30z m396 -28 c-23 -45 -77 -108 -93
-108 -5 0 9 20 32 45 23 25 49 61 58 80 9 19 19 33 21 30 2 -2 -5 -23 -18 -47z
m-326 17 c-4 -8 -10 -15 -15 -15 -4 0 -6 7 -3 15 4 8 10 15 15 15 4 0 6 -7 3
-15z m-354 -285 c8 6 34 10 56 10 34 0 42 -3 40 -17 0 -10 -8 -23 -16 -30 -13
-11 -12 -12 7 -13 21 0 22 -4 19 -47 -3 -27 -5 -50 -6 -53 -4 -9 -7 -25 -8
-42 -1 -10 -9 -18 -17 -18 -8 0 -12 -6 -9 -14 8 -21 -15 -59 -32 -52 -11 4
-13 -1 -10 -20 3 -15 3 -24 -1 -21 -3 3 -22 -5 -42 -18 -41 -29 -51 -31 -51
-10 0 8 -4 15 -9 15 -5 0 -7 -8 -4 -19 3 -14 -2 -20 -21 -23 -24 -5 -26 -3
-26 34 0 32 4 40 27 51 21 9 27 9 31 -1 6 -20 17 -14 19 11 0 12 3 31 5 42 2
15 -4 21 -27 26 l-30 7 35 3 c19 1 42 3 50 5 8 1 20 2 25 3 6 1 4 5 -4 10 -21
14 -4 33 19 21 32 -17 37 -10 5 8 l-30 17 35 3 35 4 -30 13 -30 13 35 2 c32 2
33 3 10 10 -14 4 -18 9 -10 10 8 1 4 5 -10 10 l-25 7 28 11 c38 16 34 22 -10
15 -37 -5 -37 -5 -18 12 17 14 17 16 3 11 -23 -7 -50 3 -42 16 4 7 9 7 13 0 4
-7 12 -8 21 -2z m-235 -86 c10 -11 14 -25 10 -38 -3 -12 -8 -30 -9 -41 -2 -11
-4 -22 -5 -24 -2 -9 -61 63 -61 75 0 14 27 44 40 44 5 0 16 -7 25 -16z m-135
-33 c0 -5 -6 -12 -12 -15 -9 -3 -8 -8 5 -16 9 -6 17 -16 17 -22 0 -6 -8 -17
-17 -25 -16 -13 -16 -14 -1 -9 9 2 24 -4 34 -15 15 -17 16 -24 6 -39 -18 -29
-15 -33 10 -16 33 23 61 5 48 -32 l-10 -27 20 24 c14 16 24 20 33 14 6 -5 32
-8 56 -7 43 2 43 2 37 -28 -3 -17 -6 -36 -6 -42 0 -6 -13 -12 -28 -13 -16 -1
-35 -3 -43 -5 -9 -2 -14 5 -13 21 l1 23 -18 -23 -19 -24 0 24 c0 24 0 24 -15
5 -15 -19 -15 -19 -8 1 6 18 5 19 -11 5 -17 -13 -17 -12 -2 25 16 38 16 38 -4
20 -11 -10 -22 -26 -25 -36 -4 -11 -11 -19 -16 -19 -5 0 -2 15 6 33 l16 32
-25 -28 c-15 -16 -31 -25 -36 -22 -16 10 -12 25 13 45 l22 19 -23 -6 c-12 -3
-25 -9 -28 -14 -3 -5 -9 -9 -15 -9 -19 0 -8 24 28 56 39 35 36 43 -7 19 -37
-21 -49 -18 -20 6 l25 20 -24 -6 c-15 -5 -21 -3 -17 3 3 6 0 12 -6 15 -7 2 2
7 20 11 17 4 32 11 32 15 0 4 -15 6 -32 5 -30 -3 -31 -3 -8 5 17 6 20 9 8 10
-26 1 -22 14 10 33 31 20 42 22 42 9z m240 -151 c0 -5 -4 -10 -10 -10 -5 0
-10 5 -10 10 0 6 5 10 10 10 6 0 10 -4 10 -10z m111 -117 c13 -16 12 -17 -3
-4 -10 7 -18 15 -18 17 0 8 8 3 21 -13z"/>
<path d="M1750 1860 c0 -5 5 -10 11 -10 5 0 7 5 4 10 -3 6 -8 10 -11 10 -2 0
-4 -4 -4 -10z"/>
<path d="M1740 1836 c0 -2 8 -10 18 -17 15 -13 16 -12 3 4 -13 16 -21 21 -21
13z"/>
</g>
</svg>
